<mxfile host="Electron" agent="Mozilla/5.0 (Windows NT 10.0; Win64; x64) AppleWebKit/537.36 (KHTML, like Gecko) draw.io/24.7.5 Chrome/126.0.6478.183 Electron/31.3.0 Safari/537.36" version="24.7.5">
  <diagram name="Страница — 1" id="ClpGpsFxEp234C6c3Qxi">
    <mxGraphModel dx="4941" dy="2490" grid="1" gridSize="10" guides="1" tooltips="1" connect="1" arrows="1" fold="1" page="1" pageScale="1" pageWidth="1169" pageHeight="827" math="0" shadow="0">
      <root>
        <mxCell id="0" />
        <mxCell id="1" parent="0" />
        <mxCell id="Wist2KOIOZQnMK4WS_pB-1" value="" style="shape=rect;fillColor=#fff2cc;strokeColor=none;fontSize=24;html=1;whiteSpace=wrap;align=left;verticalAlign=top;spacing=5;rounded=0;" parent="1" vertex="1">
          <mxGeometry x="-3330" y="-1156" width="850" height="100" as="geometry" />
        </mxCell>
        <mxCell id="Wist2KOIOZQnMK4WS_pB-2" value="" style="shape=rect;fillColor=#fff2cc;strokeColor=none;fontSize=24;html=1;whiteSpace=wrap;align=left;verticalAlign=top;spacing=5;rounded=0;" parent="1" vertex="1">
          <mxGeometry x="-3330" y="-1432.8" width="850" height="256.8" as="geometry" />
        </mxCell>
        <mxCell id="Wist2KOIOZQnMK4WS_pB-5" value="Система кол-центра" style="rounded=0;whiteSpace=wrap;html=1;fillColor=#f5f5f5;fontColor=#333333;strokeColor=#666666;fontSize=18;" parent="1" vertex="1">
          <mxGeometry x="-3460" y="-1432.8" width="120" height="256.8" as="geometry" />
        </mxCell>
        <mxCell id="Wist2KOIOZQnMK4WS_pB-6" value="АБС" style="rounded=0;whiteSpace=wrap;html=1;fillColor=#f5f5f5;fontColor=#333333;strokeColor=#666666;fontSize=18;" parent="1" vertex="1">
          <mxGeometry x="-3460" y="-1156" width="120" height="100" as="geometry" />
        </mxCell>
        <mxCell id="Wist2KOIOZQnMK4WS_pB-7" value="Q1" style="shape=step;perimeter=stepPerimeter;whiteSpace=wrap;html=1;fixedSize=1;size=10;fillColor=#f5f5f5;strokeColor=#666666;fontSize=18;fontStyle=1;align=center;rounded=0;fontColor=#333333;" parent="1" vertex="1">
          <mxGeometry x="-3330" y="-1526" width="410" height="74.4" as="geometry" />
        </mxCell>
        <mxCell id="Wist2KOIOZQnMK4WS_pB-9" value="T2 - Разработка функционала&amp;nbsp;&lt;div&gt;для получения текущих ставок&lt;/div&gt;" style="shape=rect;fillColor=#ffe6cc;strokeColor=#d79b00;fontSize=18;html=1;whiteSpace=wrap;align=center;verticalAlign=top;spacing=5;rounded=0;" parent="1" vertex="1">
          <mxGeometry x="-3310" y="-1136" width="280" height="60" as="geometry" />
        </mxCell>
        <mxCell id="Wist2KOIOZQnMK4WS_pB-11" value="Q2" style="shape=step;perimeter=stepPerimeter;whiteSpace=wrap;html=1;fixedSize=1;size=10;fillColor=#f5f5f5;strokeColor=#666666;fontSize=18;fontStyle=1;align=center;rounded=0;fontColor=#333333;" parent="1" vertex="1">
          <mxGeometry x="-2900" y="-1526" width="410" height="74.4" as="geometry" />
        </mxCell>
        <mxCell id="WosqP5VDjMdsGI0E_WJv-1" value="T4 - Ручная отправка кол-центрам первого сгенерированного файла для получения фидбека" style="shape=rect;fillColor=#ffe6cc;strokeColor=#d79b00;fontSize=18;html=1;whiteSpace=wrap;align=center;verticalAlign=top;spacing=5;rounded=0;" vertex="1" parent="1">
          <mxGeometry x="-3030" y="-1410" width="220" height="100" as="geometry" />
        </mxCell>
        <mxCell id="WosqP5VDjMdsGI0E_WJv-2" value="T1 - Разработка структуры файла" style="shape=rect;fillColor=#ffe6cc;strokeColor=#d79b00;fontSize=18;html=1;whiteSpace=wrap;align=center;verticalAlign=top;spacing=5;rounded=0;" vertex="1" parent="1">
          <mxGeometry x="-3310" y="-1410" width="150" height="100" as="geometry" />
        </mxCell>
        <mxCell id="WosqP5VDjMdsGI0E_WJv-3" value="T3 - Разработка интеграции с SMTP-сервером" style="shape=rect;fillColor=#ffe6cc;strokeColor=#d79b00;fontSize=18;html=1;whiteSpace=wrap;align=center;verticalAlign=top;spacing=5;rounded=0;" vertex="1" parent="1">
          <mxGeometry x="-3230" y="-1270" width="200" height="80" as="geometry" />
        </mxCell>
        <mxCell id="WosqP5VDjMdsGI0E_WJv-6" value="T6 - Обучение операторов работать с файлом" style="shape=rect;fillColor=#ffe6cc;strokeColor=#d79b00;fontSize=18;html=1;whiteSpace=wrap;align=center;verticalAlign=top;spacing=5;rounded=0;" vertex="1" parent="1">
          <mxGeometry x="-2790" y="-1410" width="160" height="100" as="geometry" />
        </mxCell>
        <mxCell id="WosqP5VDjMdsGI0E_WJv-7" value="T5 - Проверка менеджерами полученного файла, формирование фидбека" style="shape=rect;fillColor=#ffe6cc;strokeColor=#d79b00;fontSize=18;html=1;whiteSpace=wrap;align=center;verticalAlign=top;spacing=5;rounded=0;" vertex="1" parent="1">
          <mxGeometry x="-2960" y="-1290" width="220" height="100" as="geometry" />
        </mxCell>
        <mxCell id="WosqP5VDjMdsGI0E_WJv-10" value="T7 - Запуск MVP" style="shape=rect;fillColor=#ffe6cc;strokeColor=#d79b00;fontSize=18;html=1;whiteSpace=wrap;align=center;verticalAlign=top;spacing=5;rounded=0;" vertex="1" parent="1">
          <mxGeometry x="-2630" y="-1136" width="130" height="60" as="geometry" />
        </mxCell>
        <mxCell id="WosqP5VDjMdsGI0E_WJv-11" value="T7 - Запуск MVP" style="shape=rect;fillColor=#ffe6cc;strokeColor=#d79b00;fontSize=18;html=1;whiteSpace=wrap;align=center;verticalAlign=top;spacing=5;rounded=0;" vertex="1" parent="1">
          <mxGeometry x="-2630" y="-1250" width="130" height="60" as="geometry" />
        </mxCell>
      </root>
    </mxGraphModel>
  </diagram>
</mxfile>
